<svg width="27" height="27" viewBox="0 0 27 27" fill="none" xmlns="http://www.w3.org/2000/svg">
<g clip-path="url(#clip0_2_992)">
<g clip-path="url(#clip1_2_992)">
<path d="M1.46845 0L5.6223 4.1538H22.2377L18.3881 0.304234C18.1939 0.109005 17.929 0 17.6538 0H1.46845ZM0 1.46844V17.6537C0 17.9289 0.109006 18.1937 0.304237 18.3879L4.15385 22.2375V5.62224L0 1.46844ZM6.23077 6.2307V22.8459H15.5769V14.5383C15.5769 12.8207 16.9747 11.423 18.6923 11.423C19.3735 11.423 20.0354 11.6494 20.5806 12.0679C20.5868 12.0721 20.5936 12.078 20.6009 12.0822L22.8462 13.6864V6.2307H6.23077ZM18.7085 13.4877C18.5609 13.4845 18.4143 13.5129 18.2785 13.5709C18.1427 13.6289 18.0208 13.7152 17.921 13.8241C17.8211 13.9329 17.7457 14.0617 17.6996 14.2021C17.6536 14.3423 17.638 14.4909 17.6538 14.6377V23.8844C17.6538 24.4576 18.1191 24.9228 18.6923 24.9228C18.9914 24.9228 19.2558 24.7927 19.4448 24.5902L19.4509 24.5922L21.404 22.2841L23.4749 26.4257C23.5359 26.5478 23.6203 26.6566 23.7233 26.7459C23.8264 26.8353 23.946 26.9035 24.0754 26.9467C24.2048 26.9898 24.3414 27.0071 24.4775 26.9974C24.6135 26.9877 24.7464 26.9513 24.8684 26.8904C24.9904 26.8294 25.0992 26.7449 25.1886 26.6418C25.2779 26.5388 25.3461 26.4192 25.3892 26.2898C25.4324 26.1604 25.4496 26.0237 25.4399 25.8877C25.4302 25.7516 25.3938 25.6188 25.3327 25.4968L23.2193 21.272L26.2475 20.7284L26.2495 20.7102C26.6794 20.5845 27 20.202 27 19.7306C27 19.3682 26.8018 19.0646 26.5193 18.8787L26.5234 18.8584L19.4204 13.7919C19.2312 13.6025 18.9762 13.4936 18.7085 13.4877Z" fill="white"/>
</g>
</g>
<defs>
<clipPath id="clip0_2_992">
<rect width="27" height="27" fill="white"/>
</clipPath>
<clipPath id="clip1_2_992">
<rect width="27" height="27" fill="white"/>
</clipPath>
</defs>
</svg>
