<svg width="160" height="21" viewBox="0 0 160 21" fill="none" xmlns="http://www.w3.org/2000/svg">
<g clip-path="url(#clip0_2_559)">
<g clip-path="url(#clip1_2_559)">
<path d="M19.4709 3.50215C19.4709 4.96891 18.2816 6.15795 16.8145 6.15795C15.3473 6.15795 14.158 4.96891 14.158 3.50215C14.158 2.0354 15.3473 0.846354 16.8145 0.846354C18.2816 0.846354 19.4709 2.0354 19.4709 3.50215Z" fill="white" stroke="white" stroke-width="1.69292"/>
<path d="M7.7066 12.6072L14.3086 5.87211" stroke="white" stroke-width="1.69292" stroke-miterlimit="10"/>
<path d="M8.96186 15.4083C8.96186 17.6487 7.14519 19.465 4.90421 19.465C2.66324 19.465 0.846561 17.6487 0.846561 15.4083C0.846561 13.1679 2.66324 11.3517 4.90421 11.3517C7.14519 11.3517 8.96186 13.1679 8.96186 15.4083Z" fill="white" stroke="white" stroke-width="1.69292"/>
<path d="M38.0184 17.7714V3.27095H47.4618V5.0227H39.9265V9.61611H47.0723V11.3678H39.9265V16.0197H47.4618V17.7714H38.0184Z" fill="white"/>
<path d="M56.2518 17.7714V5.0227H52.3186V3.27095H62.0541V5.0227H58.1794V17.7714H56.2518Z" fill="white"/>
<path d="M67.7875 17.7714V3.27095H69.6957V9.73289H76.9583V3.27095H78.8859V17.7714H76.9583V11.4846H69.6957V17.7714H67.7875Z" fill="white"/>
<path d="M85.9996 17.7714V3.27095H95.443V5.0227H87.9077V9.61611H95.0535V11.3678H87.9077V16.0197H95.443V17.7714H85.9996Z" fill="white"/>
<path d="M101.702 17.7714V3.27095H106.822C107.783 3.27095 108.627 3.45262 109.354 3.81594C110.081 4.17926 110.646 4.69829 111.048 5.37304C111.463 6.04778 111.671 6.83931 111.671 7.74761C111.671 8.77273 111.412 9.64209 110.892 10.3557C110.373 11.0695 109.672 11.5819 108.789 11.8934L112.157 17.7714H109.938L106.394 11.4846L107.66 12.2242H103.61V17.7714H101.702ZM103.61 10.4725H106.881C107.452 10.4725 107.952 10.3622 108.38 10.1416C108.808 9.9211 109.139 9.60316 109.373 9.1879C109.62 8.77273 109.743 8.29261 109.743 7.74761C109.743 7.18965 109.62 6.70955 109.373 6.3073C109.139 5.89207 108.808 5.57416 108.38 5.35358C107.952 5.13299 107.452 5.0227 106.881 5.0227H103.61V10.4725Z" fill="white"/>
<path d="M118.221 17.7714V3.27095H127.665V5.0227H120.13V9.61611H127.275V11.3678H120.13V16.0197H127.665V17.7714H118.221Z" fill="white"/>
<path d="M132.522 17.7714L137.721 3.27095H139.98L145.178 17.7714H143.134L141.946 14.3653H135.755L134.567 17.7714H132.522ZM136.358 12.6135H141.343L138.578 4.65289H139.123L136.358 12.6135Z" fill="white"/>
<path d="M150.9 17.7714V3.27095H152.808V16.0197H159.175V17.7714H150.9Z" fill="white"/>
</g>
</g>
<defs>
<clipPath id="clip0_2_559">
<rect width="160" height="20.31" fill="white"/>
</clipPath>
<clipPath id="clip1_2_559">
<rect width="160" height="20.31" fill="white"/>
</clipPath>
</defs>
</svg>
