<svg width="27" height="23" viewBox="0 0 27 23" fill="none" xmlns="http://www.w3.org/2000/svg">
<g clip-path="url(#clip0_2_1018)">
<g clip-path="url(#clip1_2_1018)">
<path d="M5.6205 0C4.74241 0 3.92528 0.484495 3.48975 1.26589L0.77417 6.12829C0.298018 6.68635 0 7.4056 0 8.2013V19.4324C0 21.1846 1.39782 22.6094 3.11584 22.6094H8.46552C9.65462 22.6094 10.7302 21.8813 11.2003 20.7597L12.4107 18.2867C12.5862 17.8609 12.9944 17.5851 13.4461 17.5851C13.8977 17.5851 14.3059 17.8597 14.4839 18.2867L15.8022 20.7597C16.2684 21.8813 17.3441 22.6094 18.5345 22.6094H23.8841C25.6022 22.6094 27 21.1834 27 19.4324V8.2013C26.9996 7.65058 26.8477 7.13975 26.6046 6.68763L26.6213 6.67782L23.5031 1.23891C23.0633 0.473559 22.2556 0 21.3867 0H5.6205ZM5.6205 2.51215H21.3867V2.51461L22.8272 5.02431H4.21838L5.6205 2.51215ZM7.36297 11.3047C8.71903 11.3047 9.81735 12.4289 9.81735 13.8168C9.81735 15.2048 8.71903 16.329 7.36297 16.329C6.00697 16.329 4.90866 15.2048 4.90866 13.8168C4.90866 12.4289 6.00697 11.3047 7.36297 11.3047ZM19.6346 11.3047C20.9906 11.3047 22.0889 12.4289 22.0889 13.8168C22.0889 15.2048 20.9906 16.329 19.6346 16.329C18.2786 16.329 17.1803 15.2048 17.1803 13.8168C17.1803 12.4289 18.2786 11.3047 19.6346 11.3047Z" fill="white"/>
</g>
</g>
<defs>
<clipPath id="clip0_2_1018">
<rect width="27" height="22.6094" fill="white"/>
</clipPath>
<clipPath id="clip1_2_1018">
<rect width="27" height="22.6094" fill="white"/>
</clipPath>
</defs>
</svg>
