<svg width="27" height="27" viewBox="0 0 27 27" fill="none" xmlns="http://www.w3.org/2000/svg">
<g clip-path="url(#clip0_2_1005)">
<g clip-path="url(#clip1_2_1005)">
<path d="M2.7 0C1.98391 0 1.29716 0.284464 0.790815 0.790815C0.284464 1.29716 0 1.98391 0 2.7V13.5C0 13.7387 0.094821 13.9676 0.263604 14.1364C0.432386 14.3052 0.661305 14.4 0.9 14.4C1.1387 14.4 1.36761 14.3052 1.5364 14.1364C1.70518 13.9676 1.8 13.7387 1.8 13.5V2.7C1.8 2.4613 1.89482 2.23239 2.0636 2.0636C2.23239 1.89482 2.4613 1.8 2.7 1.8H13.5C13.7387 1.8 13.9676 1.70518 14.1364 1.5364C14.3052 1.36761 14.4 1.1387 14.4 0.9C14.4 0.661305 14.3052 0.432386 14.1364 0.263604C13.9676 0.094821 13.7387 0 13.5 0H2.7ZM7.2 4.5C6.48392 4.5 5.79716 4.78446 5.29081 5.29081C4.78446 5.79716 4.5 6.48392 4.5 7.2V19.8C4.5 20.0387 4.59482 20.2676 4.7636 20.4364C4.93239 20.6052 5.1613 20.7 5.4 20.7C5.63869 20.7 5.86761 20.6052 6.0364 20.4364C6.20518 20.2676 6.3 20.0387 6.3 19.8V7.2C6.3 6.96131 6.39482 6.73239 6.5636 6.5636C6.73239 6.39482 6.96131 6.3 7.2 6.3H19.8C20.0387 6.3 20.2676 6.20518 20.4364 6.0364C20.6052 5.86761 20.7 5.63869 20.7 5.4C20.7 5.1613 20.6052 4.93239 20.4364 4.7636C20.2676 4.59482 20.0387 4.5 19.8 4.5H7.2ZM11.7 9C10.2042 9 9 10.2042 9 11.7V24.3C9 25.7958 10.2042 27 11.7 27H24.3C25.7958 27 27 25.7958 27 24.3V11.7C27 10.2042 25.7958 9 24.3 9H11.7Z" fill="white"/>
</g>
</g>
<defs>
<clipPath id="clip0_2_1005">
<rect width="27" height="27" fill="white"/>
</clipPath>
<clipPath id="clip1_2_1005">
<rect width="27" height="27" fill="white"/>
</clipPath>
</defs>
</svg>
